<svg xmlns="http://www.w3.org/2000/svg" viewBox="1.5 1.5 144 27" width="320" height="60" role="img" aria-label="Converter"><style>.a{animation:sx 3.6s ease-in-out infinite}.b{animation:sxr 3.6s ease-in-out infinite}.c{animation:sy 3.6s ease-in-out infinite}.d{animation:syr 3.6s ease-in-out infinite}@keyframes sx{0%,100%{transform:translateX(0)}50%{transform:translateX(10.4px)}}@keyframes sxr{0%,100%{transform:translateX(0)}50%{transform:translateX(-10.4px)}}@keyframes sy{0%,100%{transform:translateY(0)}50%{transform:translateY(10.4px)}}@keyframes syr{0%,100%{transform:translateY(0)}50%{transform:translateY(-10.4px)}}.s{opacity:0;transform-box:fill-box;transform-origin:center;animation:cy 18s linear infinite}.s0{animation-delay:-0.9s}.s1{animation-delay:0.9s}.s2{animation-delay:2.7s}.s3{animation-delay:4.5s}.s4{animation-delay:6.3s}.s5{animation-delay:8.1s}.s6{animation-delay:9.9s}.s7{animation-delay:11.7s}.s8{animation-delay:13.5s}.s9{animation-delay:15.3s}@keyframes cy{0%{opacity:0;transform:scale(.4)}1.389%{opacity:1;transform:scale(1)}8.611%{opacity:1;transform:scale(1)}10%,100%{opacity:0;transform:scale(.4)}}.st{display:none}@media (prefers-reduced-motion:reduce){.a,.b,.c,.d,.s{animation:none}.s{display:none}.st{display:inline}}</style><defs><clipPath id="gd"><path clip-rule="evenodd" d="M-5 -5H35V35H-5Z M15 8.94L21.06 15L15 21.06L8.94 15Z"/></clipPath></defs><g clip-path="url(#gd)"><circle class="a" cx="9.8" cy="15" r="6.2" fill="none" stroke="#FFFFFF" stroke-width="2"/><circle class="b" cx="20.2" cy="15" r="6.2" fill="none" stroke="#9FE1CB" stroke-width="2"/><circle class="c" cx="15" cy="9.8" r="6.2" fill="none" stroke="#9FE1CB" stroke-width="2"/><circle class="d" cx="15" cy="20.2" r="6.2" fill="none" stroke="#FFFFFF" stroke-width="2"/></g><path d="M15 10.5L19.5 15L15 19.5L10.5 15Z" fill="#9FE1CB" stroke="#9FE1CB" stroke-width="0.8" stroke-linejoin="round"/><g fill="#0F3D2E"><g class="s s0"><path transform="translate(12.487 15.817) scale(0.00249 -0.00249)" d="M358.5697108730674 -13.738076347857714Q298.54630824923515 -13.738076347857714 251.33226885460317 -1.4285736102610826Q204.1182294599712 10.880929127335548 169.22552708350122 34.46421159803867Q134.33282470703125 58.0474940687418 111.40433175116777 91.49980817362666Q88.4758387953043 124.95212227851152 77.09490530565381 167.10684858076274Q65.71397181600332 209.26157488301396 65.71397181600332 259.0472717322409V660.0H210.21183558553457V264.14254761114717Q210.21183558553457 212.90409634262323 226.5691179484129 179.45140076614916Q242.92640031129122 145.9987051896751 275.68848091363907 129.99849592149258Q308.4505615159869 113.99828665331006 357.85546439513564 113.99828665331006Q408.4270542860031 113.99828665331006 441.1057913824916 129.93896920606494Q473.78452847898006 145.87965175881982 490.058467335999 179.34424919076264Q506.33240619301796 212.80884662270546 506.33240619301796 264.14254761114717V660.0H650.0922066941857V259.0472717322409Q650.0922066941857 129.33311680331826 577.128128061071 57.797520227730274Q504.16404942795634 -13.738076347857714 358.5697108730674 -13.738076347857714ZM1039.832087930292 -13.690442766994238Q975.0224827490747 -13.690442766994238 923.4987357147038 -0.8212759867310524Q871.9749886803329 12.047890793532133 835.4275469221175 37.90521457232535Q798.880105163902 63.762538351118565 778.9398869145662 102.52461894974113Q758.9996686652303 141.28669954836369 756.6190577857196 192.26303098723292L884.1174665093422 231.2380719780922Q885.3315298818052 185.85664584487677 906.0457894429564 156.058807361871Q926.7600490041077 126.26096887886524 963.7958635650575 111.9275490809232Q1000.8316781260073 97.59412928298116 1047.331891745329 97.59412928298116Q1091.3082537055016 97.59412928298116 1121.6894029993564 108.57036481052637Q1152.0705522932112 119.54660033807158 1167.7849818766117 137.77298845350742Q1183.4994114600122 155.99937656894326 1183.4994114600122 178.26168387383223Q1183.4994114600122 204.09551130235195 1163.4635620228946 220.32192121446133Q1143.427712585777 236.5483311265707 1109.201365886256 247.4650551956147Q1074.9750191867352 258.3817792646587 1030.80835397169 268.47702898457646Q982.5228881835938 279.9769679494202 935.820700507611 293.70312718115747Q889.1185128316283 307.4292864128947 851.1305650938302 329.4411272332072Q813.1426173560321 351.4529680535197 790.5236293189228 386.38146536797285Q767.9046412818134 421.309962682426 767.9046412818134 474.5003182552755Q767.9046412818134 535.2383727990091 798.7022334430367 579.6549682579935Q829.49982560426 624.0715637169778 887.9995727464557 648.881003241986Q946.4993198886514 673.6904427669942 1029.1891217976809 673.6904427669942Q1111.5456761084497 673.6904427669942 1171.319325050339 649.0833391472697Q1231.0929739922285 624.4762355275452 1264.0572335459292 579.2023032102734Q1297.0214930996299 533.9283708930016 1298.4021868109703 472.21356638893485L1168.4515075795352 437.66693115979433Q1168.6896580420434 468.45286778733134 1158.8563014566898 491.893521996215Q1149.0229448713362 515.3341762050986 1130.9990234486759 530.8581194244325Q1112.9751020260155 546.3820626437664 1086.9035535622388 554.4178466834128Q1060.832005098462 562.4536307230592 1027.6175885945559 562.4536307230592Q988.7365504689515 562.4536307230592 961.1173924021423 552.4058881513774Q933.4982343353331 542.3581455796957 918.962411057204 525.5126255601645Q904.4265877790749 508.6671055406332 904.4265877790749 486.3095615953207Q904.4265877790749 458.832959856838 926.367148257792 441.77325439453125Q948.3077087365091 424.7135489322245 985.2245069202036 413.6658695768565Q1022.141305103898 402.6181902214885 1066.570011679083 392.21338326856494Q1109.5938284695148 382.8561837375164 1154.1888950876892 369.487147744745Q1198.7839617058635 356.11811175197363 1237.0099378358573 334.35622951574624Q1275.235913965851 312.59434727951884 1298.4619489498436 276.21352932043374Q1321.6879839338362 239.83271136134863 1321.6879839338362 184.33289446681738Q1321.6879839338362 123.80910383537412 1289.664217280224 79.28541347384453Q1257.6404506266117 34.76172311231494 1194.700249819085 10.53564017266035Q1131.7600490115583 -13.690442766994238 1039.832087930292 -13.690442766994238ZM1624.3803623840213 643.2858625128865 1601.3807983472943 780.8566109836102H1736.307717461139L1713.1890869140625 643.2858625128865ZM1601.3807983472943 -123.97564697265625 1624.3803623840213 12.904671810567379H1713.1652701236308L1736.307717461139 -123.97564697265625ZM1678.0940246619284 0.5713893361389637Q1614.998665958643 0.5713893361389637 1564.474918924272 12.94054957665503Q1513.9511718899012 25.309709817171097 1477.9751717820764 50.09559848532081Q1441.9991716742516 74.88148715347052 1422.4756099190563 111.79834636859596Q1402.952048163861 148.7152055837214 1400.7143075056374 198.5486537218094L1525.5460902526975 235.95231845602393Q1526.6172834038734 191.7375924140215 1547.260101314634 163.38022067584097Q1567.9029192253947 135.02284893766046 1603.9387337863445 121.18942913971841Q1639.9745483472943 107.35600934177637 1685.5938284769654 107.35600934177637Q1728.570190437138 107.35600934177637 1758.3560943696648 117.83224486932158Q1788.1419983021915 128.3084803968668 1803.7968946304172 145.95152500644326Q1819.451790958643 163.59456961601973 1819.451790958643 184.95212664082646Q1819.451790958643 209.76213727891445 1799.8444998711348 225.41711208038032Q1780.2372087836266 241.0720868818462 1746.2251804955304 251.47690255567431Q1712.2131522074342 261.88171822950244 1669.7607334703207 271.8579014390707Q1621.7610212042928 282.619777135551 1576.0707353837788 295.7864031121135Q1530.3804495632648 308.953029088676 1493.1781899537891 330.1077466700226Q1455.9759303443134 351.26246425136924 1433.856942307204 384.76239667646587Q1411.7379542700946 418.2623291015625 1411.7379542700946 469.452684674412Q1411.7379542700946 527.4764927402139 1442.035546431318 570.404990054667Q1472.3331385925412 613.3334873691201 1529.4638541005552 637.2143620047718Q1586.5945696085691 661.0952366404235 1668.1891217976809 661.0952366404235Q1748.0933663621545 661.0952366404235 1806.8074820488691 637.4166979100555Q1865.5215977355838 613.7381591796875 1897.902513783425 570.3094482459128Q1930.2834298312664 526.8807373121381 1931.6879403330386 467.45168633013964L1804.403887078166 434.47642735764384Q1804.6420375406742 463.5243007168174 1795.2967725601047 485.95304653048515Q1785.9515075795352 508.3817923441529 1768.0109296627343 523.7628588024527Q1750.0703517459333 539.1439252607524 1724.4511784221977 546.6797093003988Q1698.832005098462 554.2154933400452 1666.6175885945559 554.2154933400452Q1628.0223039910197 554.2154933400452 1601.2602691631764 544.6201259084046Q1574.498234335333 535.024758476764 1560.0457545630634 518.3935503289104Q1545.5932747907937 501.76234218105674 1545.5932747907937 481.2619280144572Q1545.5932747907937 454.83294677734375 1567.0933685246855 438.29705810546875Q1588.5934622585773 421.76116943359375 1624.8673836812377 410.844458444044Q1661.141305103898 399.92774745449424 1704.6890781894326 390.5229405015707Q1746.7128949798644 381.2848074808717 1790.391305103898 368.7133614718914Q1834.0697152279317 356.14191546291113 1871.4266597237438 334.9395664818585Q1908.7836042195559 313.73721750080585 1931.8667624425143 279.0706525593996Q1954.9499206654727 244.40408761799335 1954.9499206654727 190.30909075587988Q1954.9499206654727 131.78530012443662 1923.0690307728946 89.11873954162002Q1891.1881408803165 46.452178958803415 1829.6169717069715 23.51178414747119Q1768.0458025336266 0.5713893361389637 1678.0940246619284 0.5713893361389637Z"/></g><g class="s s1"><path transform="translate(13.082 15.944) scale(0.00287 -0.00287)" d="M69.71395873650908 0.0V660.0H337.2123107947409Q389.68813651800156 660.0 433.17601886205375 651.7024100162089Q476.66390120610595 643.4048200324178 510.40189035981894 627.226290019229Q544.1398795135319 611.0477600060403 567.7112535890192 587.6668199766427Q591.2826276645064 564.2858799472451 603.3064422737807 533.6429966464639Q615.330256883055 503.0001133456826 615.330256883055 465.5952802337706Q615.330256883055 431.2382638081908 604.5326756201684 403.04776654578745Q593.7350943572819 374.8572692833841 571.6518118865788 353.5119737852365Q549.5685294158757 332.16667828708887 516.3185185138136 318.7737579289824Q483.06850761175156 305.3808375708759 438.30653163418174 299.61897495388985V286.19063894450665Q490.7348196953535 280.8812124989927 521.603842612356 262.17888967320323Q552.4728655293584 243.47656684741378 570.1158033255488 212.000394532457Q587.7587411217391 180.5242222175002 600.4729788824916 135.40515569970012L638.9729701578617 0.0H479.95159477368L450.3801662065089 124.85747416317463Q441.57067872583866 164.3097621127963 425.08250428922474 187.16704666428268Q408.5943298526108 210.02433121576905 382.7250606175512 219.7507171537727Q356.8557913824916 229.47710309177637 318.5459028072655 229.47710309177637H213.4975760281086V0.0ZM213.4975760281086 338.1663425900042H326.2360665500164Q393.40343802794814 338.1663425900042 429.64178467541933 363.78557040914893Q465.8801313228905 389.40479822829366 465.8801313228905 443.1908307746053Q465.8801313228905 496.8579363152385 432.2250693272799 522.7034040205181Q398.57000733166933 548.5488717257977 329.6884024553001 548.5488717257977H213.4975760281086ZM934.3803623840213 643.2858625128865 911.3807983472943 780.8566109836102H1046.307717461139L1023.1890869140625 643.2858625128865ZM911.3807983472943 -123.97564697265625 934.3803623840213 12.904671810567379H1023.1652701236308L1046.307717461139 -123.97564697265625ZM988.0940246619284 0.5713893361389637Q924.998665958643 0.5713893361389637 874.4749189242721 12.94054957665503Q823.9511718899012 25.309709817171097 787.9751717820764 50.09559848532081Q751.9991716742516 74.88148715347052 732.4756099190563 111.79834636859596Q712.952048163861 148.7152055837214 710.7143075056374 198.5486537218094L835.5460902526975 235.95231845602393Q836.6172834038734 191.7375924140215 857.2601013146341 163.38022067584097Q877.9029192253947 135.02284893766046 913.9387337863445 121.18942913971841Q949.9745483472943 107.35600934177637 995.5938284769654 107.35600934177637Q1038.570190437138 107.35600934177637 1068.3560943696648 117.83224486932158Q1098.1419983021915 128.3084803968668 1113.7968946304172 145.95152500644326Q1129.451790958643 163.59456961601973 1129.451790958643 184.95212664082646Q1129.451790958643 209.76213727891445 1109.8444998711348 225.41711208038032Q1090.2372087836266 241.0720868818462 1056.2251804955304 251.47690255567431Q1022.2131522074342 261.88171822950244 979.7607334703207 271.8579014390707Q931.7610212042928 282.619777135551 886.0707353837788 295.7864031121135Q840.3804495632648 308.953029088676 803.1781899537891 330.1077466700226Q765.9759303443134 351.26246425136924 743.856942307204 384.76239667646587Q721.7379542700946 418.2623291015625 721.7379542700946 469.452684674412Q721.7379542700946 527.4764927402139 752.0355464313179 570.404990054667Q782.3331385925412 613.3334873691201 839.4638541005552 637.2143620047718Q896.5945696085691 661.0952366404235 978.1891217976809 661.0952366404235Q1058.0933663621545 661.0952366404235 1116.8074820488691 637.4166979100555Q1175.5215977355838 613.7381591796875 1207.902513783425 570.3094482459128Q1240.2834298312664 526.8807373121381 1241.6879403330386 467.45168633013964L1114.403887078166 434.47642735764384Q1114.6420375406742 463.5243007168174 1105.2967725601047 485.95304653048515Q1095.9515075795352 508.3817923441529 1078.0109296627343 523.7628588024527Q1060.0703517459333 539.1439252607524 1034.4511784221977 546.6797093003988Q1008.8320050984621 554.2154933400452 976.6175885945559 554.2154933400452Q938.0223039910197 554.2154933400452 911.2602691631764 544.6201259084046Q884.4982343353331 535.024758476764 870.0457545630634 518.3935503289104Q855.5932747907937 501.76234218105674 855.5932747907937 481.2619280144572Q855.5932747907937 454.83294677734375 877.0933685246855 438.29705810546875Q898.5934622585773 421.76116943359375 934.8673836812377 410.844458444044Q971.141305103898 399.92774745449424 1014.6890781894326 390.5229405015707Q1056.7128949798644 381.2848074808717 1100.391305103898 368.7133614718914Q1144.0697152279317 356.14191546291113 1181.4266597237438 334.9395664818585Q1218.7836042195559 313.73721750080585 1241.8667624425143 279.0706525593996Q1264.9499206654727 244.40408761799335 1264.9499206654727 190.30909075587988Q1264.9499206654727 131.78530012443662 1233.0690307728946 89.11873954162002Q1201.1881408803165 46.452178958803415 1139.6169717069715 23.51178414747119Q1078.0458025336266 0.5713893361389637 988.0940246619284 0.5713893361389637Z"/></g><g class="s s2"><path transform="translate(13.626 16.248) scale(0.00378 -0.00378)" d="M34.88065882027149 353.619110096246 58.64238629490137 424.80933487415314H447.0457938089967L423.1650129035115 353.619110096246ZM18.857155922800303 217.83361381664872 42.45219638571143 288.88096837326884H417.52196830138564L393.76024082675576 217.83361381664872ZM434.7601667121053 -13.690442766994238Q357.7602713480592 -13.690442766994238 297.4152439683676 8.297803603112698Q237.07021658867598 30.286049973219633 195.28473118133843 73.54807607643306Q153.49924577400088 116.81010217964649 131.79704283736646 179.4886321928352Q110.09483990073204 242.16716220602393 110.09483990073204 323.38104248046875Q110.09483990073204 406.49968611449003 132.3208596277982 471.16630119271576Q154.54687935486436 535.8329162709415 196.27283150702715 581.3448878787458Q237.99878365918994 626.8568594865501 295.91531808301806 650.2736511267722Q353.8318525068462 673.6904427669942 426.02237809821963 673.6904427669942Q482.95113698393106 673.6904427669942 530.1415928266943 658.8093501534313Q577.3320486694574 643.9282575398684 611.2485678363591 615.7971235103905Q645.1650870032609 587.6659894809127 663.8196541815996 548.1420135665685Q682.4742213599384 508.6180376522243 682.5455191470683 459.5703909918666L549.1188616082072 426.02379063889384Q549.5236511193216 469.21466936916113 531.5474264901131 497.71500942111015Q513.5712018609047 526.2153494730592 484.45190864801407 541.0250592939556Q455.33261543512344 555.834769114852 421.14156667888165 555.834769114852Q391.6886073499918 555.834769114852 362.81927707977593 543.7988586463034Q333.94994680956006 531.7629481777549 310.97365460544825 505.17935617268085Q287.99736240133643 478.59576416760683 274.28307014517486 436.1430969312787Q260.5687778890133 393.6904296949506 260.5687778890133 331.99979946017265Q260.5687778890133 252.3568115234375 283.30687603726983 202.1303318552673Q306.04497418552637 151.90385218709707 346.5808497816324 127.87981523387134Q387.1167253777385 103.85577828064561 438.474413190037 103.85577828064561Q491.9983651302755 103.85577828064561 522.4986136332154 126.28435407206416Q552.9988621361554 148.7129298634827 566.4514291025698 184.85609872452915Q579.9039960689843 220.99926758557558 580.5467703789473 262.1429835818708L707.7595520056784 242.31007603555918Q707.521584648639 188.73864309862256 692.7835257388651 142.0957205593586Q678.0454668290913 95.45279802009463 645.8192988764495 60.381260458379984Q613.5931309238076 25.309722896665335 561.40274483338 5.809640064835548Q509.21235874295235 -13.690442766994238 434.7601667121053 -13.690442766994238Z"/></g><g class="s s3"><path transform="translate(13.671 16.245) scale(0.00377 -0.00377)" d="M185.40418787673116 -13.83331298828125Q104.90462820231915 -13.83331298828125 60.82148088142276 23.01190839521587Q16.73833356052637 59.85712977871299 16.73833356052637 121.33311680331826Q16.73833356052637 161.14249093085527 34.178739270195365 189.3925127275288Q51.61914497986436 217.64253452420235 81.11913844011724 233.106870373711Q110.61913190037012 248.57120622321963 146.71448189392686 248.57120622321963Q189.28557477146387 248.57120622321963 217.64286149293184 229.16665430925786Q246.00014821439981 209.7621023952961 264.3575046919286 179.85734339803457L278.35733902826905 185.57131522148848L279.619158051908 139.0471932552755Q253.11934115737677 158.85704693943262 231.47611344605684 166.33342633396387Q209.83288573473692 173.80980572849512 190.71359688043594 173.80980572849512Q165.4513593353331 173.80980572849512 149.17745753191411 161.63099452108145Q132.90355572849512 149.45218331366777 132.90355572849512 125.57112775370479Q132.90355572849512 103.09465681016445 148.3204454611987 87.13039289042354Q163.73733519390225 71.16612897068262 194.68967546150088 71.16612897068262Q220.64226422458887 71.16612897068262 239.2258060928434 83.65433174744248Q257.80934796109796 96.14253452420235 267.4047480877489 121.24980381131172Q277.0001482143998 146.3570730984211 277.0001482143998 183.4523358978331Q277.0001482143998 230.16632080078125 264.3572474755347 262.4400286003947Q251.71434673666954 294.7137364000082 233.0238145980984 319.34469822607934Q214.33328245952725 343.9756600521505 195.5713086705655 367.63050406239927Q176.80933488160372 391.28534807264805 164.16643414273858 420.16641888953745Q151.52353340387344 449.04748970642686 151.52353340387344 489.6904471218586Q151.52353340387344 550.4762398824096 181.7616075705737 591.7262115459889Q211.99968173727393 632.9761832095683 264.7019239086658 654.0713740754873Q317.4041660800576 675.1665649414062 384.3323800191283 675.1665649414062Q442.2366115041077 675.1665649414062 485.9269278421998 660.2618887759745Q529.6172441802919 645.3572126105428 558.974380498752 618.1667763832957Q588.3315168172121 590.9763401560485 602.1529889851809 554.4761897493154Q615.9744611531496 517.9760393425822 613.4505746103823 473.80890765041113L478.57159424573183 449.833347864449Q477.7146083340049 479.23880876228213 467.9049944244325 504.3462262786925Q458.09538051486015 529.4536437951028 437.2855704203248 544.5608673077077Q416.47576032578945 559.6680908203125 380.6420593224466 559.6680908203125Q339.33160399645567 559.6680908203125 318.1645921897143 537.4891292024404Q296.99758038297296 515.3101675845683 296.99758038297296 479.30967930331826Q296.99758038297296 452.309422083199 306.89050728082657 428.3212084081024Q316.7834341786802 404.33299473300576 331.4025878831744 380.28531537763774Q346.02174158766866 356.2376360222697 360.4028320237994 329.0947658009827Q374.7839224599302 301.9518955796957 384.6768493577838 269.58279855176806Q394.5697762556374 237.21370152384043 394.5697762556374 196.40405709668994Q394.5697762556374 160.6895577609539 384.1887708324939 123.47537231817842Q373.8077654093504 86.26118687540293 350.0101645272225 55.3447178453207Q326.21256364509463 24.428248815238476 285.85568454675376 5.297467913478613Q245.4988054484129 -13.83331298828125 185.40418787673116 -13.83331298828125ZM93.45227485522628 294.57225254550576V376.2856881245971L267.5941510722041 372.61921909451485L269.2608991190791 307.97670636698604ZM516.1898585744202 -14.6666259765625Q463.95201328769326 -14.6666259765625 425.7259935606271 4.761925833299756Q387.49997383356094 24.190477643162012 363.98806761577725 49.357210429385304Q340.47616139799356 74.5239432156086 331.5949750505388 91.47654941305518L319.3092171661556 99.69071741402149L341.7614179216325 139.50085448473692Q352.6185477003455 133.7149178571999 366.2971932440996 125.76218522712588Q379.9758387878537 117.80945259705186 396.14263261295855 110.27338300086558Q412.3094264380634 102.7373134046793 429.3691885769367 98.04658072255552Q446.42895071581006 93.35584804043174 462.50075421854854 93.35584804043174Q497.14326259866357 93.35584804043174 514.4647325892001 111.47467259503901Q531.7862025797367 129.59349714964628 537.8577837385237 155.83151464350522Q543.9293648973107 182.06953213736415 543.9293648973107 205.49853952601552Q543.9293648973107 214.68930054828525 543.3459472768009 222.820659102872Q542.762529656291 230.95201765745878 541.3100062869489 238.4286695290357Q539.8574829176068 245.9053214006126 538.1667567715049 251.71536255255342L680.1884983666241 250.85883440077305Q684.4983651377261 234.57253592461348 686.462796902284 216.9885907880962Q688.427228666842 199.4046456515789 688.427228666842 183.66604614630342Q688.427228666842 146.808624278754 679.0581142008305 111.53484672680497Q669.6889997348189 76.26106917485595 649.188982296735 47.856534695252776Q628.6889648586512 19.452000215649605 595.7010694351047 2.3926871195435524Q562.7131740115583 -14.6666259765625 516.1898585744202 -14.6666259765625ZM279.85637553036213 312.2147216796875 277.3801312856376 380.2142900712788 504.1648167036474 395.07104055956006V312.92909894511104Z"/></g><g class="s s4"><path transform="translate(13.750 16.324) scale(0.00402 -0.00402)" d="M54.88156999275088 141.52440970763564V231.28514754027128H579.1623317487538V141.52440970763564ZM55.000636503100395 303.5462515838444V393.30698941648006H245.64253452420235V303.5462515838444ZM389.61581859737635 303.5462515838444V393.30698941648006H579.2813982591033V303.5462515838444ZM240.85619682446122 6.0V209.5482526421547L5.904950819909573 653.0H174.21182686835527L309.045732781291 337.3800048753619H314.188459135592L449.21275114268064 653.0H616.1387416571379L382.56836810708046 210.97674559801817V6.0Z"/></g><g class="s s5"><path transform="translate(13.110 15.944) scale(0.00287 -0.00287)" d="M371.1891087181866 -13.690442766994238Q294.1892133541405 -13.690442766994238 233.84418597444892 8.297803603112698Q173.49915859475732 30.286049973219633 131.71367318741977 73.54807607643306Q89.92818778008223 116.81010217964649 68.2259848434478 179.4886321928352Q46.52378190681338 242.16716220602393 46.52378190681338 323.38104248046875Q46.52378190681338 406.49968611449003 68.74980163387954 471.16630119271576Q90.9758213609457 535.8329162709415 132.7017735131085 581.3448878787458Q174.42772566527128 626.8568594865501 232.3442600890994 650.2736511267722Q290.26079451292753 673.6904427669942 362.451320104301 673.6904427669942Q419.3800789900124 673.6904427669942 466.5705348327756 658.8093501534313Q513.7609906755388 643.9282575398684 547.6775098424405 615.7971235103905Q581.5940290093422 587.6659894809127 600.248596187681 548.1420135665685Q618.9031633660197 508.6180376522243 618.9744611531496 459.5703909918666L485.54780361428857 426.02379063889384Q485.9525931254029 469.21466936916113 467.9763684961945 497.71500942111015Q450.00014386698604 526.2153494730592 420.8808506540954 541.0250592939556Q391.7615574412048 555.834769114852 357.570508684963 555.834769114852Q328.11754935607314 555.834769114852 299.2482190858573 543.7988586463034Q270.3788888156414 531.7629481777549 247.4025966115296 505.17935617268085Q224.42630440741777 478.59576416760683 210.7120121512562 436.1430969312787Q196.99771989509463 393.6904296949506 196.99771989509463 331.99979946017265Q196.99771989509463 252.3568115234375 219.73581804335117 202.1303318552673Q242.4739161916077 151.90385218709707 283.00979178771377 127.87981523387134Q323.5456673838198 103.85577828064561 374.90335519611835 103.85577828064561Q428.42730713635683 103.85577828064561 458.92755563929677 126.28435407206416Q489.4278041422367 148.7129298634827 502.88037110865116 184.85609872452915Q516.3329380750656 220.99926758557558 516.9757123850286 262.1429835818708L644.1884940117598 242.31007603555918Q643.9505266547203 188.73864309862256 629.2124677449465 142.0957205593586Q614.4744088351727 95.45279802009463 582.2482408825308 60.381260458379984Q550.022072929889 25.309722896665335 497.8316868394613 5.809640064835548Q445.6413007490337 -13.690442766994238 371.1891087181866 -13.690442766994238ZM938.3803623840213 643.2858625128865 915.3807983472943 780.8566109836102H1050.307717461139L1027.1890869140625 643.2858625128865ZM915.3807983472943 -123.97564697265625 938.3803623840213 12.904671810567379H1027.1652701236308L1050.307717461139 -123.97564697265625ZM992.0940246619284 0.5713893361389637Q928.998665958643 0.5713893361389637 878.4749189242721 12.94054957665503Q827.9511718899012 25.309709817171097 791.9751717820764 50.09559848532081Q755.9991716742516 74.88148715347052 736.4756099190563 111.79834636859596Q716.952048163861 148.7152055837214 714.7143075056374 198.5486537218094L839.5460902526975 235.95231845602393Q840.6172834038734 191.7375924140215 861.2601013146341 163.38022067584097Q881.9029192253947 135.02284893766046 917.9387337863445 121.18942913971841Q953.9745483472943 107.35600934177637 999.5938284769654 107.35600934177637Q1042.570190437138 107.35600934177637 1072.3560943696648 117.83224486932158Q1102.1419983021915 128.3084803968668 1117.7968946304172 145.95152500644326Q1133.451790958643 163.59456961601973 1133.451790958643 184.95212664082646Q1133.451790958643 209.76213727891445 1113.8444998711348 225.41711208038032Q1094.2372087836266 241.0720868818462 1060.2251804955304 251.47690255567431Q1026.2131522074342 261.88171822950244 983.7607334703207 271.8579014390707Q935.7610212042928 282.619777135551 890.0707353837788 295.7864031121135Q844.3804495632648 308.953029088676 807.1781899537891 330.1077466700226Q769.9759303443134 351.26246425136924 747.856942307204 384.76239667646587Q725.7379542700946 418.2623291015625 725.7379542700946 469.452684674412Q725.7379542700946 527.4764927402139 756.0355464313179 570.404990054667Q786.3331385925412 613.3334873691201 843.4638541005552 637.2143620047718Q900.5945696085691 661.0952366404235 982.1891217976809 661.0952366404235Q1062.0933663621545 661.0952366404235 1120.8074820488691 637.4166979100555Q1179.5215977355838 613.7381591796875 1211.902513783425 570.3094482459128Q1244.2834298312664 526.8807373121381 1245.6879403330386 467.45168633013964L1118.403887078166 434.47642735764384Q1118.6420375406742 463.5243007168174 1109.2967725601047 485.95304653048515Q1099.9515075795352 508.3817923441529 1082.0109296627343 523.7628588024527Q1064.0703517459333 539.1439252607524 1038.4511784221977 546.6797093003988Q1012.8320050984621 554.2154933400452 980.6175885945559 554.2154933400452Q942.0223039910197 554.2154933400452 915.2602691631764 544.6201259084046Q888.4982343353331 535.024758476764 874.0457545630634 518.3935503289104Q859.5932747907937 501.76234218105674 859.5932747907937 481.2619280144572Q859.5932747907937 454.83294677734375 881.0933685246855 438.29705810546875Q902.5934622585773 421.76116943359375 938.8673836812377 410.844458444044Q975.141305103898 399.92774745449424 1018.6890781894326 390.5229405015707Q1060.7128949798644 381.2848074808717 1104.391305103898 368.7133614718914Q1148.0697152279317 356.14191546291113 1185.4266597237438 334.9395664818585Q1222.7836042195559 313.73721750080585 1245.8667624425143 279.0706525593996Q1268.9499206654727 244.40408761799335 1268.9499206654727 190.30909075587988Q1268.9499206654727 131.78530012443662 1237.0690307728946 89.11873954162002Q1205.1881408803165 46.452178958803415 1143.6169717069715 23.51178414747119Q1082.0458025336266 0.5713893361389637 992.0940246619284 0.5713893361389637Z"/></g><g class="s s6"><path transform="translate(13.128 15.944) scale(0.00287 -0.00287)" d="M16.190586626529694 0.0 241.9288983978331 660.0H449.94903565198183L675.5682809129357 0.0H518.9992239922285L353.06970651075244 545.7156895250082H339.37957763671875L172.68819753825665 0.0ZM142.5706961452961 129.16726684942842V228.40432303398848H569.687722351402V129.16726684942842ZM956.3803623840213 643.2858625128865 933.3807983472943 780.8566109836102H1068.307717461139L1045.1890869140625 643.2858625128865ZM933.3807983472943 -123.97564697265625 956.3803623840213 12.904671810567379H1045.1652701236308L1068.307717461139 -123.97564697265625ZM1010.0940246619284 0.5713893361389637Q946.998665958643 0.5713893361389637 896.4749189242721 12.94054957665503Q845.9511718899012 25.309709817171097 809.9751717820764 50.09559848532081Q773.9991716742516 74.88148715347052 754.4756099190563 111.79834636859596Q734.952048163861 148.7152055837214 732.7143075056374 198.5486537218094L857.5460902526975 235.95231845602393Q858.6172834038734 191.7375924140215 879.2601013146341 163.38022067584097Q899.9029192253947 135.02284893766046 935.9387337863445 121.18942913971841Q971.9745483472943 107.35600934177637 1017.5938284769654 107.35600934177637Q1060.570190437138 107.35600934177637 1090.3560943696648 117.83224486932158Q1120.1419983021915 128.3084803968668 1135.7968946304172 145.95152500644326Q1151.451790958643 163.59456961601973 1151.451790958643 184.95212664082646Q1151.451790958643 209.76213727891445 1131.8444998711348 225.41711208038032Q1112.2372087836266 241.0720868818462 1078.2251804955304 251.47690255567431Q1044.2131522074342 261.88171822950244 1001.7607334703207 271.8579014390707Q953.7610212042928 282.619777135551 908.0707353837788 295.7864031121135Q862.3804495632648 308.953029088676 825.1781899537891 330.1077466700226Q787.9759303443134 351.26246425136924 765.856942307204 384.76239667646587Q743.7379542700946 418.2623291015625 743.7379542700946 469.452684674412Q743.7379542700946 527.4764927402139 774.0355464313179 570.404990054667Q804.3331385925412 613.3334873691201 861.4638541005552 637.2143620047718Q918.5945696085691 661.0952366404235 1000.1891217976809 661.0952366404235Q1080.0933663621545 661.0952366404235 1138.8074820488691 637.4166979100555Q1197.5215977355838 613.7381591796875 1229.902513783425 570.3094482459128Q1262.2834298312664 526.8807373121381 1263.6879403330386 467.45168633013964L1136.403887078166 434.47642735764384Q1136.6420375406742 463.5243007168174 1127.2967725601047 485.95304653048515Q1117.9515075795352 508.3817923441529 1100.0109296627343 523.7628588024527Q1082.0703517459333 539.1439252607524 1056.4511784221977 546.6797093003988Q1030.832005098462 554.2154933400452 998.6175885945559 554.2154933400452Q960.0223039910197 554.2154933400452 933.2602691631764 544.6201259084046Q906.4982343353331 535.024758476764 892.0457545630634 518.3935503289104Q877.5932747907937 501.76234218105674 877.5932747907937 481.2619280144572Q877.5932747907937 454.83294677734375 899.0933685246855 438.29705810546875Q920.5934622585773 421.76116943359375 956.8673836812377 410.844458444044Q993.141305103898 399.92774745449424 1036.6890781894326 390.5229405015707Q1078.7128949798644 381.2848074808717 1122.391305103898 368.7133614718914Q1166.0697152279317 356.14191546291113 1203.4266597237438 334.9395664818585Q1240.7836042195559 313.73721750080585 1263.8667624425143 279.0706525593996Q1286.9499206654727 244.40408761799335 1286.9499206654727 190.30909075587988Q1286.9499206654727 131.78530012443662 1255.0690307728946 89.11873954162002Q1223.1881408803165 46.452178958803415 1161.6169717069715 23.51178414747119Q1100.0458025336266 0.5713893361389637 1010.0940246619284 0.5713893361389637Z"/></g><g class="s s7"><path transform="translate(12.902 16.300) scale(0.00394 -0.00394)" d="M69.71395873650908 0.0V660.0H213.4975760281086V0.0ZM138.33175658807158 246.64421298727393V364.76169258356094H517.7590157836676V246.64421298727393ZM138.33175658807158 537.239842005074V660.0H555.3782566823065V537.239842005074ZM646.0949750579894 0.0V256.5013863071799L646.0473414771259 525.2853742316365H765.926971424371L765.5455583706498 341.4984828159213H783.878487713635Q791.3070852980018 410.33202251791954 810.4379904512316 453.36802236549556Q829.5688956044614 496.4040222130716 863.806688580662 516.9042249377817Q898.0444815568626 537.4044276624918 948.305720757693 537.4044276624918Q958.1869506984949 537.4044276624918 969.6991424653679 536.106689453125Q981.2113342322409 534.8089512437582 995.6639011912048 530.9515511728823L989.7353254035115 377.7870352752507Q973.3781171552837 385.16806031391025 955.4257943332195 388.1800362803042Q937.4734715111554 391.19201224669814 923.09245955199 391.19201224669814Q884.6639709509909 391.19201224669814 856.9140712171793 373.1916067972779Q829.1641714833677 355.1912013478577 812.6642063595355 320.7382267471403Q796.1642412357032 286.28525214642286 790.3070853054523 236.54661774262786V0.0Z"/></g><g class="s s8"><path transform="translate(13.499 16.039) scale(0.00300 -0.00300)" d="M144 779V664H858V779ZM53 507V391H280C268 225 240 88 31 10C58 -12 91 -57 104 -87C346 11 392 182 409 391H561V83C561 -34 590 -72 703 -72C726 -72 801 -72 825 -72C927 -72 957 -20 969 160C936 168 884 189 858 210C853 65 848 40 814 40C795 40 737 40 723 40C690 40 685 46 685 84V391H950V507Z"/></g><g class="s s9"><path transform="translate(12.611 15.795) scale(0.00242 -0.00242)" d="M16.190586626529694 0.0 241.9288983978331 660.0H449.94903565198183L675.5682809129357 0.0H518.9992239922285L353.06970651075244 545.7156895250082H339.37957763671875L172.68819753825665 0.0ZM142.5706961452961 129.16726684942842V228.40432303398848H569.687722351402V129.16726684942842ZM761.7139587365091 0.0V660.0H1029.212310794741Q1081.6881365180016 660.0 1125.1760188620538 651.7024100162089Q1168.663901206106 643.4048200324178 1202.401890359819 627.226290019229Q1236.139879513532 611.0477600060403 1259.7112535890192 587.6668199766427Q1283.2826276645064 564.2858799472451 1295.3064422737807 533.6429966464639Q1307.330256883055 503.0001133456826 1307.330256883055 465.5952802337706Q1307.330256883055 431.2382638081908 1296.5326756201684 403.04776654578745Q1285.735094357282 374.8572692833841 1263.6518118865788 353.5119737852365Q1241.5685294158757 332.16667828708887 1208.3185185138136 318.7737579289824Q1175.0685076117516 305.3808375708759 1130.3065316341817 299.61897495388985V286.19063894450665Q1182.7348196953535 280.8812124989927 1213.603842612356 262.17888967320323Q1244.4728655293584 243.47656684741378 1262.1158033255488 212.000394532457Q1279.7587411217391 180.5242222175002 1292.4729788824916 135.40515569970012L1330.9729701578617 0.0H1171.95159477368L1142.3801662065089 124.85747416317463Q1133.5706787258387 164.3097621127963 1117.0825042892247 187.16704666428268Q1100.5943298526108 210.02433121576905 1074.7250606175512 219.7507171537727Q1048.8557913824916 229.47710309177637 1010.5459028072655 229.47710309177637H905.4975760281086V0.0ZM905.4975760281086 338.1663425900042H1018.2360665500164Q1085.4034380279481 338.1663425900042 1121.6417846754193 363.78557040914893Q1157.8801313228905 389.40479822829366 1157.8801313228905 443.1908307746053Q1157.8801313228905 496.8579363152385 1124.22506932728 522.7034040205181Q1090.5700073316693 548.5488717257977 1021.6884024553001 548.5488717257977H905.4975760281086ZM1626.3803623840213 643.2858625128865 1603.3807983472943 780.8566109836102H1738.307717461139L1715.1890869140625 643.2858625128865ZM1603.3807983472943 -123.97564697265625 1626.3803623840213 12.904671810567379H1715.1652701236308L1738.307717461139 -123.97564697265625ZM1680.0940246619284 0.5713893361389637Q1616.998665958643 0.5713893361389637 1566.474918924272 12.94054957665503Q1515.9511718899012 25.309709817171097 1479.9751717820764 50.09559848532081Q1443.9991716742516 74.88148715347052 1424.4756099190563 111.79834636859596Q1404.952048163861 148.7152055837214 1402.7143075056374 198.5486537218094L1527.5460902526975 235.95231845602393Q1528.6172834038734 191.7375924140215 1549.260101314634 163.38022067584097Q1569.9029192253947 135.02284893766046 1605.9387337863445 121.18942913971841Q1641.9745483472943 107.35600934177637 1687.5938284769654 107.35600934177637Q1730.570190437138 107.35600934177637 1760.3560943696648 117.83224486932158Q1790.1419983021915 128.3084803968668 1805.7968946304172 145.95152500644326Q1821.451790958643 163.59456961601973 1821.451790958643 184.95212664082646Q1821.451790958643 209.76213727891445 1801.8444998711348 225.41711208038032Q1782.2372087836266 241.0720868818462 1748.2251804955304 251.47690255567431Q1714.2131522074342 261.88171822950244 1671.7607334703207 271.8579014390707Q1623.7610212042928 282.619777135551 1578.0707353837788 295.7864031121135Q1532.3804495632648 308.953029088676 1495.1781899537891 330.1077466700226Q1457.9759303443134 351.26246425136924 1435.856942307204 384.76239667646587Q1413.7379542700946 418.2623291015625 1413.7379542700946 469.452684674412Q1413.7379542700946 527.4764927402139 1444.035546431318 570.404990054667Q1474.3331385925412 613.3334873691201 1531.4638541005552 637.2143620047718Q1588.5945696085691 661.0952366404235 1670.1891217976809 661.0952366404235Q1750.0933663621545 661.0952366404235 1808.8074820488691 637.4166979100555Q1867.5215977355838 613.7381591796875 1899.902513783425 570.3094482459128Q1932.2834298312664 526.8807373121381 1933.6879403330386 467.45168633013964L1806.403887078166 434.47642735764384Q1806.6420375406742 463.5243007168174 1797.2967725601047 485.95304653048515Q1787.9515075795352 508.3817923441529 1770.0109296627343 523.7628588024527Q1752.0703517459333 539.1439252607524 1726.4511784221977 546.6797093003988Q1700.832005098462 554.2154933400452 1668.6175885945559 554.2154933400452Q1630.0223039910197 554.2154933400452 1603.2602691631764 544.6201259084046Q1576.498234335333 535.024758476764 1562.0457545630634 518.3935503289104Q1547.5932747907937 501.76234218105674 1547.5932747907937 481.2619280144572Q1547.5932747907937 454.83294677734375 1569.0933685246855 438.29705810546875Q1590.5934622585773 421.76116943359375 1626.8673836812377 410.844458444044Q1663.141305103898 399.92774745449424 1706.6890781894326 390.5229405015707Q1748.7128949798644 381.2848074808717 1792.391305103898 368.7133614718914Q1836.0697152279317 356.14191546291113 1873.4266597237438 334.9395664818585Q1910.7836042195559 313.73721750080585 1933.8667624425143 279.0706525593996Q1956.9499206654727 244.40408761799335 1956.9499206654727 190.30909075587988Q1956.9499206654727 131.78530012443662 1925.0690307728946 89.11873954162002Q1893.1881408803165 46.452178958803415 1831.6169717069715 23.51178414747119Q1770.0458025336266 0.5713893361389637 1680.0940246619284 0.5713893361389637Z"/></g><path class="st" d="M14.75782701761573 13.392360422948256 14.64885103241346 12.700000000000003H15.269296056616486L15.159835629445276 13.392360422948256ZM14.64885103241346 17.3 14.75782701761573 16.610303409242103H15.15959343063612L15.269296056616486 17.3ZM14.998305650357935 16.669635599779493Q14.676946937070019 16.669635599779493 14.422789991207663 16.604855332730597Q14.168633045345308 16.5400750656817 13.990880379691198 16.411483082958355Q13.813127714037087 16.28289110023501 13.719892124097356 16.091577407354986Q13.626656534157624 15.900263714474962 13.624234235668482 15.643322391305864L14.185592505114322 15.486635900753042Q14.181961030576474 15.725655842109035 14.288030896077965 15.878584725898214Q14.394100761579455 16.031513609687394 14.586986862148603 16.106101066225648Q14.779872962717748 16.180688522763905 15.029546148772189 16.180688522763905Q15.266868481311333 16.180688522763905 15.431057171000237 16.122810899704792Q15.59524586068914 16.06493327664568 15.68182038470041 15.964676759065291Q15.76839490871168 15.864420241484904 15.76839490871168 15.738736440397359Q15.76839490871168 15.59464761370655 15.662688651812047 15.507346382400705Q15.556982394912414 15.420045151094861 15.377051602793127 15.365436125596155Q15.19712081067384 15.310827100097448 14.976747650299709 15.260213756367799Q14.737000358688102 15.207420578986182 14.507666241360454 15.142155759129652Q14.278332124032804 15.076890939273122 14.090651169465811 14.971062784790126Q13.90297021489882 14.86523463030713 13.791330286639084 14.697047908682393Q13.679690358379348 14.528861187057654 13.679690358379348 14.271193090077503Q13.679690358379348 13.9788943320933 13.831651865886949 13.763121286294837Q13.98361337339455 13.54734824049637 14.266467796644154 13.427595450214023Q14.549322219893757 13.307842659931675 14.947691730164777 13.307842659931675Q15.33831216442705 13.307842659931675 15.630732132654522 13.425537381121934Q15.923152100881996 13.543232102312194 16.087221620087334 13.764091012781083Q16.251291139292675 13.984949923249975 16.257586623366578 14.293716205046525L15.682909813764152 14.438050423166903Q15.684605249778865 14.281367879043703 15.633508240083742 14.160768346269009Q15.58241123038862 14.040168813494317 15.484575902758882 13.95819486965511Q15.386740575129144 13.876220925815902 15.248947409905298 13.83589990085623Q15.111154244681455 13.795578875896556 14.93969961279851 13.795578875896556Q14.73458395771544 13.795578875896556 14.58807332028826 13.850308335663481Q14.441562682861079 13.905037795430408 14.361042574866257 14.001177487496Q14.280522466871433 14.09731717956159 14.280522466871433 14.220094550569705Q14.280522466871433 14.37338520275047 14.398215214808992 14.466376908888517Q14.51590796274655 14.559368615026564 14.711215430649933 14.617367758754964Q14.906522898553316 14.675366902483365 15.136582237722969 14.724527097689775Q15.350417715195098 14.771265969912584 15.567644020364966 14.834109200738546Q15.784870325534836 14.896952431564506 15.968314242015145 15.002538586778307Q16.151758158495454 15.108124741992109 16.263761961413486 15.280186511577725Q16.37576576433152 15.452248281163342 16.37576576433152 15.719119622588485Q16.37576576433152 16.010692759650762 16.2178706963404 16.224528481004015Q16.059975628349278 16.438364202357263 15.753752190243507 16.55399990106838Q15.447528752137737 16.669635599779493 14.998305650357935 16.669635599779493Z"/></g><g fill="#FFFFFF" transform="translate(40 22.26) scale(0.022 -0.022)"><path transform="translate(0.00 0)" d="M367.95185197517276 -13.380998883396387Q292.80868093296885 -13.380998883396387 233.8323582150042 8.738146103918552Q174.85603549703956 30.857291091233492 133.9988664854318 74.095493869856Q93.14169747382402 117.33369664847851 71.95124599151313 179.9051208589226Q50.76079450920224 242.4765450693667 50.76079450920224 323.04779052734375Q50.76079450920224 405.4285975769162 72.49887085147202 470.0476117711514Q94.2369471937418 534.6666259653866 135.04648698493838 580.3333042599261Q175.85602677613497 625.9999825544655 232.68949235230684 649.690490718931Q289.5229579284787 673.3809988833964 360.3327985480428 673.3809988833964Q415.90468053147197 673.3809988833964 462.1429661437869 658.5475376639515Q508.38125175610185 643.7140764445066 541.7145952600986 615.6662859134376Q575.0479387640953 587.6184953823686 593.5002136267722 548.1421508621424Q611.952488489449 508.6658063419163 612.0952409952879 459.71336144953966L494.2362234853208 430.3323189802468Q494.7599923238158 476.2844151034951 475.59356253407896 506.57002475857735Q456.4271327443421 536.8556344136596 424.97507585957646 552.4746660478413Q393.52301897481084 568.093697682023 356.42793491855264 568.093697682023Q323.6662946380675 568.093697682023 292.28567068465054 554.8795165978372Q260.9050467312336 541.6653355136514 236.31008039042354 513.2131609171629Q211.71511404961348 484.7609863206744 197.14386858604848 439.6423034593463Q182.5726231224835 394.52362059801817 182.5726231224835 329.85750034451485Q182.5726231224835 246.858154296875 206.47713361680508 194.4774257130921Q230.38164411112666 142.09669712930918 273.30981880798936 117.12050520069897Q316.23799350485206 92.14431327208877 371.52328054606915 92.14431327208877Q427.4276122972369 92.14431327208877 460.2130388431251 114.71573748067021Q492.9984653890133 137.28716168925166 508.04589842259884 175.14422171004117Q523.0933314561844 213.00128173083067 524.0931657887995 258.71532330289483L636.6666085273027 240.62003871053457Q636.3334088921547 187.61984689161181 621.5001177042723 141.4053780734539Q606.6668265163898 95.19090925529599 574.7143903430551 60.33361380919814Q542.7619541697204 25.47631836310029 491.5951320081949 6.047659739851952Q440.42830984666944 -13.380998883396387 367.95185197517276 -13.380998883396387Z"/>
<path transform="translate(669.00 0)" d="M300.76142229139805 -13.380998883396387Q223.71371895819902 -13.380998883396387 164.90408761240542 18.09512329287827Q106.09445626661181 49.57124546915293 72.83247593976557 110.99983433634043Q39.57049561291933 172.42842320352793 39.57049561291933 262.6667306087911Q39.57049561291933 354.6192626990378 73.66577149182558 415.1669485941529Q107.76104737073183 475.71463448926806 166.6897408682853 505.8575003501028Q225.61843436583877 536.0003662109375 299.9043840691447 536.0003662109375Q375.95222691074014 536.0003662109375 434.9761308915913 504.9051513671875Q494.0000348724425 473.8099365234375 527.7857622355223 412.64324951171875Q561.571489598602 351.4765625 561.571489598602 260.28593226894736Q561.571489598602 167.9999825619161 527.3809422012419 107.04755074717104Q493.19039480388165 46.095118932425976 433.97598702088 16.357060024514794Q374.7615792378783 -13.380998883396387 300.76142229139805 -13.380998883396387ZM304.80903843417764 82.81079973652959Q346.3800048790872 82.81079973652959 375.28439330495894 102.64393834024668Q404.18878173083067 122.47707694396377 419.4266531728208 161.07202148996294Q434.66452461481094 199.6669660359621 434.66452461481094 253.90475900098681Q434.66452461481094 310.9045061394572 418.59330966696143 351.3328159879893Q402.5220947191119 391.7611258365214 371.99867465905845 413.737156458199Q341.475254599005 435.71318707987666 296.9043143130839 435.71318707987666Q256.2857230082154 435.71318707987666 226.92896380275488 416.21333094872534Q197.57220459729433 396.713474817574 182.16767666116357 358.47562517412007Q166.7631487250328 320.2377755306661 166.7631487250328 264.57148088887334Q166.7631487250328 177.1910226047039 203.47693743743002 130.00091117061675Q240.19072614982724 82.81079973652959 304.80903843417764 82.81079973652959Z"/>
<path transform="translate(1270.00 0)" d="M67.04635184630752 0V313.42742052674294L66.95110212638974 522.5717424675822H173.33363561332226L169.42911203950644 354.3321097418666H186.66706195101142Q199.2382551021874 415.8564191684127 222.69056484475732 456.11868287064135Q246.14287458732724 496.38094657287 282.9286542646587 516.1906563919038Q319.71443394199014 536.0003662109375 369.9051775224507 536.0003662109375Q458.9052995853126 536.0003662109375 504.85769216157496 473.2860935833305Q550.8100847378373 410.5718209557235 550.8100847378373 279.7144688665867V0H423.85557336732745V266.85701210796833Q423.85557336732745 350.3802054412663 399.04631695337594 389.3560878261924Q374.2370605394244 428.33197021111846 325.0469534769654 428.33197021111846Q282.9045148678124 428.33197021111846 253.88102069310844 401.7845764160156Q224.85752651840448 375.2371826209128 209.57201277464628 330.11813355609775Q194.28649903088808 284.9990844912827 193.14374651759863 228.23649382218719V0Z"/>
<path transform="translate(1880.00 0)" d="M190.5703560858965 0 12.570905417203903 521.7146257683635H151.9064767025411L272.28610664233565 102.14453125372529H286.33349607884884L407.33227536454797 521.7146257683635H541.7152099311352L363.1443306915462 0Z"/>
<path transform="translate(2434.00 0)" d="M304.4282662495971 -13.380998883396387Q240.142255499959 -13.380998883396387 190.95164706744254 4.952379502356052Q141.76103863492608 23.285757888108492 108.0467136874795 57.904850559309125Q74.33238874003291 92.52394323050976 56.95144217647612 141.57158116810024Q39.57049561291933 190.61921910569072 39.57049561291933 252.09536306932569Q39.57049561291933 313.3809988796711 56.522866390645504 365.26198904402554Q73.47523716837168 417.14297920838 106.07050868496299 455.476370671764Q138.6657802015543 493.80976213514805 186.33257184363902 514.9050641730428Q233.99936348572373 536.0003662109375 294.85677664354444 536.0003662109375Q352.4763096384704 536.0003662109375 397.66699218563735 516.8335309699178Q442.8576747328043 497.66669572889805 473.35767909139395 459.8808070551604Q503.8576834499836 422.09491838142276 518.2146911546588 367.04725428298116Q532.571698859334 311.99959018453956 528.0000871792436 240.19029888883233L120.80998012423515 236.7140241265297V310.0004795566201L451.8078351393342 313.3338710181415L410.61729212105274 272.2862025462091Q416.3315952755511 327.6665562093258 402.117544984445 363.83287701383233Q387.90349469333887 399.99919781833887 359.97525024041533 417.78475079871714Q332.0470057874918 435.5703037790954 295.71394565701485 435.5703037790954Q254.7142333947122 435.5703037790954 224.3336138036102 414.02283150702715Q193.9529942125082 392.4753592349589 177.54847935773432 352.142333984375Q161.14396450296044 311.8093087337911 161.14396450296044 254.61934116855264Q161.14396450296044 167.5720302052796 199.16745431162417 124.64380319043994Q237.1909441202879 81.71557617560029 304.7139718160033 81.71557617560029Q334.3805105909705 81.71557617560029 355.0946219153702 89.45368739403784Q375.80873323976994 97.1917986124754 389.59425570070744 110.00132968276739Q403.37977816164494 122.81086075305939 411.4986048936844 139.31082151457667Q419.61743162572384 155.81078227609396 423.7124546468258 173.28685650229454L534.7144775278866 150.8108084499836Q527.2386300116777 114.00128174200654 509.976919984445 83.92964826896787Q492.7152099572122 53.85801479592919 464.40567888505757 32.09585135988891Q436.0961478129029 10.333687923848629 396.5482352152467 -1.523655479773879Q357.0003226175904 -13.380998883396387 304.4282662495971 -13.380998883396387Z"/>
<path transform="translate(3004.00 0)" d="M67.04635184630752 0V262.8564628139138L66.95110212638974 522.5717424675822H174.42895508930087L171.09586008638144 337.57067001610994H188.61949812620878Q196.61936733871698 404.09534564614296 215.66697475872934 447.66696603782475Q234.7145821787417 491.23858642950654 268.11930629238486 513.0241960827261Q301.52403040602803 534.8098057359457 350.1905255801976 534.8098057359457Q360.5239868015051 534.8098057359457 372.6193237211555 533.3573608398438Q384.71466064080596 531.9049159437418 399.76227678731084 527.476274754852L394.1907610222697 393.4261910431087Q378.33346121385694 400.3311157114804 361.2856924831867 403.2835562489927Q344.2379237525165 406.235996786505 330.1901942566037 406.235996786505Q291.33319091424346 406.235996786505 263.40471540391445 385.6647774800658Q235.47623989358544 365.09355817362666 218.26215472444892 327.3317958358675Q201.0480695553124 289.5700334981084 193.61991664767265 237.52226043120027V0Z"/>
<path transform="translate(3420.00 0)" d="M251.57173374667764 -11.52386474609375Q168.8091953806579 -11.52386474609375 129.35649762675166 32.666891913861036Q89.90379987284541 76.85764857381582 89.90379987284541 170.57261439040303V421.5225917287171H15.142386302351952L16.856672015041113 520.2379150278866H63.522417318075895Q94.66610281169415 520.9999825544655 109.30930873192847 531.9290684349835Q123.95251465216279 542.8581543155015 127.42878069728613 569.2877110503614L138.04765973612666 639.1432146430016H211.52498953789473V522.5717424675822H348.47651018947363V418.2844151109457H211.52498953789473V175.71580287069082Q211.52498953789473 138.47782679274678 229.14400809444487 121.57310703210533Q246.76302665099502 104.66838727146387 280.9533342644572 104.66838727146387Q299.4770420603454 104.66838727146387 317.8816528301686 109.19216918386519Q336.2862635999918 113.71595109626651 351.61928885802627 124.42995779588819V5.190255302935839Q321.85736083984375 -4.8572998046875 296.69072614237666 -8.190582275390625Q271.5240914449096 -11.52386474609375 251.57173374667764 -11.52386474609375Z"/>
<path transform="translate(3804.00 0)" d="M304.4282662495971 -13.380998883396387Q240.142255499959 -13.380998883396387 190.95164706744254 4.952379502356052Q141.76103863492608 23.285757888108492 108.0467136874795 57.904850559309125Q74.33238874003291 92.52394323050976 56.95144217647612 141.57158116810024Q39.57049561291933 190.61921910569072 39.57049561291933 252.09536306932569Q39.57049561291933 313.3809988796711 56.522866390645504 365.26198904402554Q73.47523716837168 417.14297920838 106.07050868496299 455.476370671764Q138.6657802015543 493.80976213514805 186.33257184363902 514.9050641730428Q233.99936348572373 536.0003662109375 294.85677664354444 536.0003662109375Q352.4763096384704 536.0003662109375 397.66699218563735 516.8335309699178Q442.8576747328043 497.66669572889805 473.35767909139395 459.8808070551604Q503.8576834499836 422.09491838142276 518.2146911546588 367.04725428298116Q532.571698859334 311.99959018453956 528.0000871792436 240.19029888883233L120.80998012423515 236.7140241265297V310.0004795566201L451.8078351393342 313.3338710181415L410.61729212105274 272.2862025462091Q416.3315952755511 327.6665562093258 402.117544984445 363.83287701383233Q387.90349469333887 399.99919781833887 359.97525024041533 417.78475079871714Q332.0470057874918 435.5703037790954 295.71394565701485 435.5703037790954Q254.7142333947122 435.5703037790954 224.3336138036102 414.02283150702715Q193.9529942125082 392.4753592349589 177.54847935773432 352.142333984375Q161.14396450296044 311.8093087337911 161.14396450296044 254.61934116855264Q161.14396450296044 167.5720302052796 199.16745431162417 124.64380319043994Q237.1909441202879 81.71557617560029 304.7139718160033 81.71557617560029Q334.3805105909705 81.71557617560029 355.0946219153702 89.45368739403784Q375.80873323976994 97.1917986124754 389.59425570070744 110.00132968276739Q403.37977816164494 122.81086075305939 411.4986048936844 139.31082151457667Q419.61743162572384 155.81078227609396 423.7124546468258 173.28685650229454L534.7144775278866 150.8108084499836Q527.2386300116777 114.00128174200654 509.976919984445 83.92964826896787Q492.7152099572122 53.85801479592919 464.40567888505757 32.09585135988891Q436.0961478129029 10.333687923848629 396.5482352152467 -1.523655479773879Q357.0003226175904 -13.380998883396387 304.4282662495971 -13.380998883396387Z"/>
<path transform="translate(4374.00 0)" d="M67.04635184630752 0V262.8564628139138L66.95110212638974 522.5717424675822H174.42895508930087L171.09586008638144 337.57067001610994H188.61949812620878Q196.61936733871698 404.09534564614296 215.66697475872934 447.66696603782475Q234.7145821787417 491.23858642950654 268.11930629238486 513.0241960827261Q301.52403040602803 534.8098057359457 350.1905255801976 534.8098057359457Q360.5239868015051 534.8098057359457 372.6193237211555 533.3573608398438Q384.71466064080596 531.9049159437418 399.76227678731084 527.476274754852L394.1907610222697 393.4261910431087Q378.33346121385694 400.3311157114804 361.2856924831867 403.2835562489927Q344.2379237525165 406.235996786505 330.1901942566037 406.235996786505Q291.33319091424346 406.235996786505 263.40471540391445 385.6647774800658Q235.47623989358544 365.09355817362666 218.26215472444892 327.3317958358675Q201.0480695553124 289.5700334981084 193.61991664767265 237.52226043120027V0Z"/></g></svg>
